<svg width="359" height="465" viewBox="0 0 359 465" fill="none" xmlns="http://www.w3.org/2000/svg">
<path d="M202.519 27.9239C206.582 27.9239 209.875 24.6066 209.875 20.5145C209.875 16.4224 206.582 13.1051 202.519 13.1051C198.457 13.1051 195.163 16.4224 195.163 20.5145C195.163 24.6066 198.457 27.9239 202.519 27.9239Z" fill="#FBC945"/>
<path d="M92.4272 86.3927C96.4899 86.3927 99.7834 83.0754 99.7834 78.9833C99.7834 74.8912 96.4899 71.5739 92.4272 71.5739C88.3646 71.5739 85.0711 74.8912 85.0711 78.9833C85.0711 83.0754 88.3646 86.3927 92.4272 86.3927Z" fill="#FBC945"/>
<path d="M8.35699 153.934C12.4197 153.934 15.7131 150.617 15.7131 146.525C15.7131 142.433 12.4197 139.115 8.35699 139.115C4.2943 139.115 1.00084 142.433 1.00084 146.525C1.00084 150.617 4.2943 153.934 8.35699 153.934Z" fill="#FBC945"/>
<path d="M25.3712 292.042C29.4339 292.042 32.7273 288.724 32.7273 284.632C32.7273 280.54 29.4339 277.223 25.3712 277.223C21.3085 277.223 18.0151 280.54 18.0151 284.632C18.0151 288.724 21.3085 292.042 25.3712 292.042Z" fill="#FBC945"/>
<path d="M17.0353 57.3915L9.78644 60.6468L14.9215 72.2478L22.1703 68.9926L17.0353 57.3915Z" fill="#649894"/>
<path d="M128.35 95.7678L121.101 99.0231L126.236 110.624L133.485 107.369L128.35 95.7678Z" fill="#649894"/>
<path d="M333.521 136.091L326.273 139.346L331.408 150.947L338.657 147.692L333.521 136.091Z" fill="#649894"/>
<path d="M154.489 80.3643C156.899 80.3643 158.853 78.3965 158.853 75.9691C158.853 73.5417 156.899 71.5739 154.489 71.5739C152.079 71.5739 150.125 73.5417 150.125 75.9691C150.125 78.3965 152.079 80.3643 154.489 80.3643Z" fill="#EB5F59"/>
<path d="M68.4172 464.444C70.8271 464.444 72.7808 462.476 72.7808 460.048C72.7808 457.621 70.8271 455.653 68.4172 455.653C66.0072 455.653 64.0535 457.621 64.0535 460.048C64.0535 462.476 66.0072 464.444 68.4172 464.444Z" fill="#FBC945"/>
<path d="M17.3745 249.722C19.7845 249.722 21.7382 247.754 21.7382 245.327C21.7382 242.9 19.7845 240.932 17.3745 240.932C14.9645 240.932 13.0109 242.9 13.0109 245.327C13.0109 247.754 14.9645 249.722 17.3745 249.722Z" fill="#EB5F59"/>
<path d="M339.644 84.3967C342.054 84.3967 344.007 82.4288 344.007 80.0014C344.007 77.574 342.054 75.6062 339.644 75.6062C337.234 75.6062 335.28 77.574 335.28 80.0014C335.28 82.4288 337.234 84.3967 339.644 84.3967Z" fill="#EB5F59"/>
<path d="M318.626 128.752C321.036 128.752 322.99 126.784 322.99 124.357C322.99 121.93 321.036 119.962 318.626 119.962C316.216 119.962 314.263 121.93 314.263 124.357C314.263 126.784 316.216 128.752 318.626 128.752Z" fill="#EB5F59"/>
<path d="M173.505 394.886C175.915 394.886 177.869 392.918 177.869 390.491C177.869 388.063 175.915 386.096 173.505 386.096C171.095 386.096 169.141 388.063 169.141 390.491C169.141 392.918 171.095 394.886 173.505 394.886Z" fill="#EB5F59"/>
<path d="M297.609 455.371C300.019 455.371 301.972 453.403 301.972 450.976C301.972 448.548 300.019 446.581 297.609 446.581C295.199 446.581 293.245 448.548 293.245 450.976C293.245 453.403 295.199 455.371 297.609 455.371Z" fill="#EB5F59"/>
<path d="M330.636 258.795C333.046 258.795 335 256.827 335 254.4C335 251.972 333.046 250.004 330.636 250.004C328.226 250.004 326.273 251.972 326.273 254.4C326.273 256.827 328.226 258.795 330.636 258.795Z" fill="#A1C080"/>
<path d="M109.451 387.829C111.861 387.829 113.815 385.862 113.815 383.434C113.815 381.007 111.861 379.039 109.451 379.039C107.041 379.039 105.088 381.007 105.088 383.434C105.088 385.862 107.041 387.829 109.451 387.829Z" fill="#FBC945"/>
<path d="M55.1104 14.0677L48.9138 9.07274L41.0343 18.9898L47.2309 23.9848L55.1104 14.0677Z" fill="#EB5F59"/>
<path d="M354.36 451.576L348.164 446.581L340.284 456.498L346.481 461.493L354.36 451.576Z" fill="#A1C080"/>
<path d="M24.276 450.731L18.0794 445.736L10.1999 455.653L16.3965 460.648L24.276 450.731Z" fill="#EB5F59"/>
<path d="M347.355 321.533L341.158 316.538L333.279 326.455L339.475 331.45L347.355 321.533Z" fill="#EB5F59"/>
<path d="M224.548 8.79048C226.958 8.79048 228.911 6.82266 228.911 4.39524C228.911 1.96782 226.958 0 224.548 0C222.138 0 220.184 1.96782 220.184 4.39524C220.184 6.82266 222.138 8.79048 224.548 8.79048Z" fill="#A1C080"/>
<path d="M205.532 371.7C207.942 371.7 209.895 369.732 209.895 367.305C209.895 364.877 207.942 362.91 205.532 362.91C203.122 362.91 201.168 364.877 201.168 367.305C201.168 369.732 203.122 371.7 205.532 371.7Z" fill="#A1C080"/>
<path d="M131.83 35.7264C134.992 35.7264 137.555 33.1448 137.555 29.9602C137.555 26.7756 134.992 24.194 131.83 24.194C128.668 24.194 126.105 26.7756 126.105 29.9602C126.105 33.1448 128.668 35.7264 131.83 35.7264Z" fill="#A1C080"/>
<path d="M229.912 96.2114C233.074 96.2114 235.637 93.6298 235.637 90.4452C235.637 87.2606 233.074 84.6789 229.912 84.6789C226.75 84.6789 224.187 87.2606 224.187 90.4452C224.187 93.6298 226.75 96.2114 229.912 96.2114Z" fill="#FBC945"/>
<path d="M287.961 72.0174C291.122 72.0174 293.685 69.4358 293.685 66.2512C293.685 63.0666 291.122 60.4849 287.961 60.4849C284.799 60.4849 282.236 63.0666 282.236 66.2512C282.236 69.4358 284.799 72.0174 287.961 72.0174Z" fill="#A1C080"/>
<path d="M61.7716 146.616C64.9333 146.616 67.4964 144.034 67.4964 140.849C67.4964 137.665 64.9333 135.083 61.7716 135.083C58.6099 135.083 56.0468 137.665 56.0468 140.849C56.0468 144.034 58.6099 146.616 61.7716 146.616Z" fill="#A1C080"/>
<path d="M134.5 362.91C137.662 362.91 140.225 360.328 140.225 357.143C140.225 353.959 137.662 351.377 134.5 351.377C131.338 351.377 128.775 353.959 128.775 357.143C128.775 360.328 131.338 362.91 134.5 362.91Z" fill="#A1C080"/>
<path d="M224.908 426.862C228.07 426.862 230.633 424.281 230.633 421.096C230.633 417.912 228.07 415.33 224.908 415.33C221.746 415.33 219.183 417.912 219.183 421.096C219.183 424.281 221.746 426.862 224.908 426.862Z" fill="#EB5F59"/>
<path d="M78.7858 420.814C81.9476 420.814 84.5106 418.232 84.5106 415.048C84.5106 411.863 81.9476 409.281 78.7858 409.281C75.6241 409.281 73.0611 411.863 73.0611 415.048C73.0611 418.232 75.6241 420.814 78.7858 420.814Z" fill="#659794"/>
<path d="M5.72479 426.862C8.8865 426.862 11.4496 424.281 11.4496 421.096C11.4496 417.912 8.8865 415.33 5.72479 415.33C2.56307 415.33 0 417.912 0 421.096C0 424.281 2.56307 426.862 5.72479 426.862Z" fill="#A1C080"/>
<path d="M351.644 43.0451C355.707 43.0451 359 39.7278 359 35.6357C359 31.5436 355.707 28.2263 351.644 28.2263C347.581 28.2263 344.288 31.5436 344.288 35.6357C344.288 39.7278 347.581 43.0451 351.644 43.0451Z" fill="#FBC945"/>
<path d="M306.606 400.914C310.669 400.914 313.962 397.597 313.962 393.505C313.962 389.413 310.669 386.096 306.606 386.096C302.544 386.096 299.25 389.413 299.25 393.505C299.25 397.597 302.544 400.914 306.606 400.914Z" fill="#FBC945"/>
<path d="M249.5 450.976C253.563 450.976 256.856 447.658 256.856 443.566C256.856 439.474 253.563 436.157 249.5 436.157C245.437 436.157 242.144 439.474 242.144 443.566C242.144 447.658 245.437 450.976 249.5 450.976Z" fill="#FBC945"/>
<path d="M158 448L161.968 441.077L151.047 434.726L147.079 441.649L158 448Z" fill="#649894"/>
<path d="M26.9345 385.962L30.9028 379.039L19.9817 372.688L16.0134 379.611L26.9345 385.962Z" fill="#649894"/>
</svg>
