<?xml version="1.0" encoding="utf-8"?>
<!-- Generator: Adobe Illustrator 26.0.3, SVG Export Plug-In . SVG Version: 6.00 Build 0)  -->
<svg version="1.1" id="Capa_1" xmlns="http://www.w3.org/2000/svg" xmlns:xlink="http://www.w3.org/1999/xlink" x="0px" y="0px"
	 viewBox="0 0 348.7 108.4" style="enable-background:new 0 0 348.7 108.4;" xml:space="preserve">
<style type="text/css">
	.st0{fill:#EB5F59;}
	.st1{fill:#A1C080;}
	.st2{fill:#649894;}
	.st3{fill:#FBC945;}
	.st4{fill:#233D4D;stroke:#233D4D;stroke-miterlimit:10;}
	.st5{fill:#233D4D;}
	.st6{fill:#FFFFFF;}
</style>
<g>
	<polygon class="st0" points="87.1,40 102.8,101.3 104,106 104.1,106.1 128.4,99.9 128.4,99.7 127.2,95 111.4,33.8 	"/>
	<g>
		<rect x="35.8" y="5.1" class="st1" width="25.4" height="4.2"/>
		<rect x="35.8" y="10.2" class="st1" width="25.4" height="2.1"/>
		<rect x="35.8" y="13.2" class="st1" width="25.4" height="85"/>
		<g>
			<rect x="35.8" y="99.1" class="st1" width="25.4" height="2.1"/>
			<rect x="35.8" y="102.1" class="st1" width="25.4" height="4.3"/>
		</g>
	</g>
	<rect x="64.2" y="26.8" class="st2" width="19.9" height="79.6"/>
	<g>
		<rect x="2.8" y="22.5" class="st3" width="29.3" height="72.4"/>
		<rect x="2.8" y="97.5" class="st3" width="29.3" height="8.4"/>
		<rect x="2.6" y="12.3" class="st3" width="29.3" height="7.6"/>
	</g>
	<path class="st4" d="M21.3,75.8l-3.5-2.5c-2-1.4-2.4-4.2-1-6.2l1.1-1.6l7.1,5.1L21.3,75.8z"/>
	<rect x="70.2" y="50.1" class="st5" width="7.9" height="30.6"/>
	<g>
		<rect x="38.6" y="38.8" class="st5" width="7.9" height="21.2"/>
		<rect x="50.4" y="38.8" class="st5" width="7.9" height="21.2"/>
		<path class="st5" d="M48.5,70.3c-5.5,0-9.9-4.6-9.9-10.3h7.9c0,1.3,0.9,2.4,2,2.4c1.1,0,2-1.1,2-2.4h7.9
			C58.4,65.6,53.9,70.3,48.5,70.3z"/>
	</g>
	<g>
		<g>
			<path class="st5" d="M105.6,58.7c-1,6.4-2.1,12.7-3.1,19.1c2.2-0.6,4.4-1.1,6.5-1.7c1-6.4,2.1-12.7,3.1-19.1
				C110,57.6,107.8,58.2,105.6,58.7z"/>
			<path class="st5" d="M109.7,76.7c-2.7,0.7-5.3,1.4-8,2.1c1.1-6.9,2.2-13.7,3.3-20.6c2.7-0.7,5.3-1.4,8-2.1
				C111.9,62.9,110.8,69.8,109.7,76.7z M103.4,76.8c1.7-0.4,3.4-0.9,5.1-1.3c0.9-5.8,1.9-11.7,2.8-17.5c-1.7,0.4-3.4,0.9-5.1,1.3
				C105.3,65.1,104.3,71,103.4,76.8z"/>
		</g>
		<g>
			<path class="st5" d="M95.1,54.7c0.5,2.1,1.1,4.2,1.6,6.3c3-0.8,6-1.5,8.9-2.3c0.4-2.3,0.8-4.7,1.1-7
				C102.8,52.7,99,53.7,95.1,54.7z"/>
			<path class="st5" d="M106.2,59.3c-3.3,0.9-6.7,1.7-10,2.6c-0.7-2.6-1.3-5.1-2-7.7c4.5-1.1,8.9-2.3,13.4-3.4
				C107.1,53.6,106.7,56.5,106.2,59.3z M97.2,60.2c2.6-0.7,5.2-1.3,7.9-2c0.3-1.8,0.6-3.6,0.9-5.4c-3.3,0.9-6.7,1.7-10,2.6
				C96.3,56.9,96.7,58.5,97.2,60.2z"/>
		</g>
		<g>
			<path class="st5" d="M112.5,50.3c-1.9,0.4-3.9,1-5.8,1.5c-0.4,2.3-0.8,4.7-1.1,7c2.2-0.6,4.4-1.1,6.5-1.7c0.3-2,0.7-4.2,1-6.2
				C113.2,50.4,113,50.2,112.5,50.3z"/>
			<path class="st5" d="M112.8,57.6c-2.7,0.7-5.3,1.4-8,2.1c0.5-2.8,0.9-5.7,1.4-8.5c2-0.5,4.2-1.1,6.2-1.6c0.5-0.1,0.8,0,1.1,0.3
				c0.3,0.3,0.5,0.6,0.4,1.1C113.5,53.2,113.1,55.4,112.8,57.6z M106.5,57.8c1.7-0.4,3.4-0.9,5.1-1.3c0.3-1.8,0.6-3.6,0.9-5.4
				c-1.7,0.4-3.4,0.9-5.1,1.3C107.1,54.1,106.8,55.9,106.5,57.8z"/>
		</g>
		<g>
			<path class="st5" d="M119.6,80.1c-0.5-2.1-1.1-4.2-1.6-6.3c-3,0.8-5.9,1.5-8.9,2.3c-0.4,2.3-0.8,4.7-1.1,7
				C111.8,82.1,115.7,81.1,119.6,80.1z"/>
			<path class="st5" d="M120.4,80.6c-4.4,1.1-8.9,2.3-13.3,3.4c0.5-2.8,0.9-5.7,1.4-8.5c3.3-0.9,6.6-1.7,10-2.6
				C119.1,75.5,119.8,78.1,120.4,80.6z M108.8,82.1c3.3-0.9,6.6-1.7,9.9-2.6c-0.4-1.6-0.8-3.3-1.3-4.9c-2.6,0.7-5.2,1.3-7.8,2
				C109.4,78.5,109.1,80.3,108.8,82.1z"/>
		</g>
		<g>
			<path class="st5" d="M102.2,84.6c1.9-0.4,3.9-1,5.8-1.5c0.4-2.3,0.8-4.7,1.1-7c-2.2,0.6-4.4,1.1-6.5,1.7c-0.3,2-0.7,4.2-1,6.2
				C101.5,84.4,101.7,84.7,102.2,84.6z"/>
			<path class="st5" d="M108.6,83.7c-2,0.5-4.2,1.1-6.2,1.6c-0.5,0.1-0.8,0-1.1-0.3c-0.3-0.3-0.5-0.6-0.4-1.1
				c0.3-2.1,0.7-4.4,1.1-6.6c2.7-0.7,5.3-1.4,8-2.1C109.5,78,109,80.8,108.6,83.7z M102.3,83.8c1.7-0.4,3.4-0.9,5.1-1.3
				c0.3-1.8,0.6-3.6,0.9-5.4c-1.7,0.4-3.4,0.9-5.1,1.3C102.8,80.2,102.6,82,102.3,83.8z"/>
		</g>
	</g>
	<path class="st5" d="M17,47c0.6,0,1,0.2,1.4,0.7c0.5,0.6,1.6,2.4,1.6,6.7c0,4.2-1.1,6.1-1.6,6.7c-0.5,0.6-0.8,0.7-1.4,0.7
		c-1.7,0-3-3.1-3-7.3C14,50.8,14.9,47,17,47 M17,39.1c-6.4,0-11.6,5-11.6,15.3c0,10.1,5.2,15.3,11.6,15.3s11.6-5.1,11.6-15.3
		C28.5,44,23.3,39.1,17,39.1L17,39.1z"/>
	<g>
		<circle class="st6" cx="113.5" cy="92.2" r="3.2"/>
	</g>
</g>
<g>
	<g>
		<path class="st5" d="M153.2,66.1h13.8v6h-20.2V36h6.5V66.1z"/>
		<path class="st5" d="M167.4,72.5h-21.1V35.6h7.4v30.1h13.8V72.5z M147.1,71.6h19.3v-5.1h-13.8V36.4h-5.6V71.6z"/>
	</g>
	<g>
		<path class="st5" d="M181.3,72h-6.5V36h6.5V72z"/>
		<path class="st5" d="M181.8,72.5h-7.4V35.6h7.4V72.5z M175.3,71.6h5.6V36.4h-5.6V71.6z"/>
	</g>
	<g>
		<path class="st5" d="M191.1,72V36h11c3.8,0,6.7,0.8,8.7,2.5c2,1.7,3,4.1,3,7.4c0,1.8-0.4,3.3-1.2,4.7c-0.8,1.3-1.9,2.3-3.3,3
			c1.6,0.5,2.9,1.4,3.8,2.8c0.9,1.4,1.4,3.1,1.4,5.1c0,3.5-1,6.1-2.9,7.9c-1.9,1.8-4.7,2.7-8.2,2.7H191.1z M197.6,51.1h4.8
			c3.3-0.1,4.9-1.6,4.9-4.5c0-1.6-0.4-2.8-1.2-3.5c-0.8-0.7-2.1-1.1-3.9-1.1h-4.5V51.1z M197.6,56.3v9.7h5.5c1.5,0,2.7-0.4,3.6-1.2
			c0.9-0.8,1.3-2,1.3-3.5c0-3.3-1.5-5-4.5-5H197.6z"/>
		<path class="st5" d="M191.1,72.5h-0.4V35.6h11.5c3.9,0,6.9,0.9,9,2.6c2.1,1.8,3.1,4.3,3.1,7.7c0,1.8-0.4,3.5-1.2,4.9
			c-0.7,1.1-1.5,2-2.6,2.7c1.3,0.6,2.3,1.4,3.1,2.6c1,1.5,1.5,3.3,1.5,5.4c0,3.6-1,6.3-3,8.2c-2,1.8-4.9,2.8-8.5,2.8H191.1z
			 M191.6,71.6h11.8c3.4,0,6.1-0.9,7.9-2.6c1.8-1.7,2.8-4.2,2.8-7.5c0-1.9-0.4-3.6-1.3-4.9c-0.9-1.3-2.1-2.2-3.6-2.6l-1.2-0.3
			l1.1-0.5c1.3-0.6,2.4-1.5,3.1-2.8c0.7-1.3,1.1-2.8,1.1-4.4c0-3.1-0.9-5.4-2.8-7c-1.9-1.6-4.7-2.4-8.4-2.4h-10.6V71.6z M203.1,66.5
			h-6V55.9h6.4c3.2,0.1,4.9,1.9,4.9,5.5c0,1.6-0.5,2.9-1.4,3.8C206.1,66,204.8,66.5,203.1,66.5z M198,65.6h5.1
			c1.4,0,2.5-0.4,3.3-1.1c0.8-0.8,1.1-1.8,1.1-3.1c0-3.1-1.3-4.5-4-4.6H198V65.6z M197.6,51.5h-0.4v-10h5c1.9,0,3.3,0.4,4.2,1.2
			c0.9,0.8,1.4,2.1,1.4,3.9c0,3.1-1.8,4.9-5.3,4.9H197.6z M198,50.7h4.4c3-0.1,4.5-1.3,4.5-4c0-1.5-0.4-2.6-1.1-3.2
			c-0.7-0.6-2-1-3.6-1H198V50.7z"/>
	</g>
	<g>
		<path class="st5" d="M234.8,58.8h-5.2V72h-6.5V36h11.7c3.7,0,6.6,0.9,8.6,2.8c2,1.9,3,4.6,3,8c0,2.5-0.5,4.5-1.4,6.1
			c-0.9,1.6-2.3,2.9-4.2,3.9l6.8,14.7V72h-7L234.8,58.8z M229.6,52.8h5.2c1.6,0,2.9-0.5,3.8-1.4c0.9-0.9,1.3-2.3,1.3-3.9
			c0-1.7-0.4-3-1.3-4c-0.8-1-2.1-1.5-3.9-1.5h-5.2V52.8z"/>
		<path class="st5" d="M248.1,72.5h-7.7l-5.9-13.2h-4.4v13.2h-7.4V35.6h12.1c3.8,0,6.8,1,8.9,3c2.1,2,3.2,4.8,3.2,8.4
			c0,2.5-0.5,4.7-1.5,6.4c-0.9,1.6-2.3,2.9-4,3.9l6.7,14.5V72.5z M241,71.6h6.1l-6.8-14.8l0.4-0.2c1.8-0.9,3.2-2.2,4-3.7
			c0.9-1.6,1.3-3.6,1.3-5.9c0-3.3-1-5.9-2.9-7.7c-1.9-1.8-4.7-2.7-8.3-2.7h-11.2v35.1h5.6V58.4h5.9L241,71.6z M234.8,53.3h-5.7V41.6
			h5.6c1.9,0,3.3,0.5,4.2,1.6c0.9,1.1,1.4,2.5,1.4,4.3c0,1.8-0.5,3.2-1.5,4.2C238,52.7,236.6,53.3,234.8,53.3z M230.1,52.4h4.8
			c1.5,0,2.6-0.4,3.5-1.3c0.8-0.9,1.2-2.1,1.2-3.6c0-1.6-0.4-2.8-1.2-3.7c-0.8-0.9-1.9-1.3-3.5-1.3h-4.8V52.4z"/>
	</g>
	<g>
		<path class="st5" d="M272.9,64.6h-11.4l-2.2,7.4h-6.9l11.7-36h6L282,72h-6.9L272.9,64.6z M263.3,58.6h7.9l-4-13.5L263.3,58.6z"/>
		<path class="st5" d="M282.6,72.5h-7.8l-2.2-7.4h-10.7l-2.2,7.4h-7.8l12-36.9h6.6L282.6,72.5z M275.4,71.6h5.9l-11.5-35.1h-5.4
			l-11.4,35.1h5.9l2.2-7.4h12L275.4,71.6z M271.8,59h-9l4.5-15.5L271.8,59z M263.9,58.1h6.7l-3.4-11.5L263.9,58.1z"/>
	</g>
	<g>
		<path class="st5" d="M300.4,58.8h-5.2V72h-6.5V36h11.7c3.7,0,6.6,0.9,8.6,2.8c2,1.9,3,4.6,3,8c0,2.5-0.5,4.5-1.4,6.1
			c-0.9,1.6-2.3,2.9-4.2,3.9l6.8,14.7V72h-7L300.4,58.8z M295.2,52.8h5.2c1.6,0,2.9-0.5,3.8-1.4c0.9-0.9,1.3-2.3,1.3-3.9
			c0-1.7-0.4-3-1.3-4c-0.8-1-2.1-1.5-3.9-1.5h-5.2V52.8z"/>
		<path class="st5" d="M313.6,72.5H306l-5.9-13.2h-4.4v13.2h-7.4V35.6h12.1c3.8,0,6.8,1,8.9,3c2.1,2,3.2,4.8,3.2,8.4
			c0,2.5-0.5,4.7-1.5,6.4c-0.9,1.6-2.3,2.9-4,3.9l6.7,14.5V72.5z M306.5,71.6h6.1l-6.8-14.8l0.4-0.2c1.8-0.9,3.2-2.2,4-3.7
			c0.9-1.6,1.3-3.6,1.3-5.9c0-3.3-1-5.9-2.9-7.7c-1.9-1.8-4.7-2.7-8.3-2.7h-11.2v35.1h5.6V58.4h5.9L306.5,71.6z M300.4,53.3h-5.7
			V41.6h5.6c1.9,0,3.3,0.5,4.2,1.6c0.9,1.1,1.4,2.5,1.4,4.3c0,1.8-0.5,3.2-1.5,4.2C303.5,52.7,302.2,53.3,300.4,53.3z M295.6,52.4
			h4.8c1.5,0,2.6-0.4,3.5-1.3c0.8-0.9,1.2-2.1,1.2-3.6c0-1.6-0.4-2.8-1.2-3.7c-0.8-0.9-1.9-1.3-3.5-1.3h-4.8V52.4z"/>
	</g>
	<g>
		<path class="st5" d="M330.5,52.2l6.5-16.2h7.1l-10.3,23V72h-6.6V59l-10.3-23h7.1L330.5,52.2z"/>
		<path class="st5" d="M334.3,72.5h-7.5V59.1l-10.6-23.5h8.1l6.2,15.5l6.2-15.5h8.1l-10.6,23.5V72.5z M327.7,71.6h5.7l0-12.8
			l10-22.3h-6.1l-6.8,17l-6.8-17h-6.1L327.7,59V71.6z"/>
	</g>
</g>
<g>
	<path class="st5" d="M162.6,106.5h-2.7l-10.1-15.4v15.4h-2.7V86.5h2.7L160,102V86.5h2.6V106.5z"/>
	<path class="st5" d="M171.8,86.5l6.6,16.3l6.6-16.3h3.4v19.9h-2.7v-7.8l0.2-8.4l-6.6,16.1h-2l-6.6-16.1l0.3,8.3v7.8h-2.7V86.5
		H171.8z"/>
	<path class="st5" d="M207.7,88.7h-6.5v17.8h-2.6V88.7h-6.5v-2.2h15.6V88.7z"/>
	<path class="st5" d="M221.8,101.2h-8.4l-1.9,5.2h-2.7l7.7-19.9h2.3l7.7,19.9h-2.7L221.8,101.2z M214.2,99.1h6.9l-3.4-9.3
		L214.2,99.1z"/>
	<path class="st5" d="M241.4,97.7h-8.5v8.8h-2.7V86.5h12.5v2.2h-9.8v6.8h8.5V97.7z"/>
	<path class="st5" d="M258.4,97.2h-8.7v7.1h10.1v2.2H247V86.5h12.7v2.2h-10v6.4h8.7V97.2z"/>
</g>
</svg>
